<?xml version="1.0" encoding="UTF-8"?>
<svg id="Layer_2" xmlns="http://www.w3.org/2000/svg" viewBox="0 0 132.86 199.29">
  <defs>
    <style>
      .cls-1 {
        fill: #d10000;
      }

      .cls-2 {
        fill: #fff;
      }
    </style>
  </defs>
  <g id="No_parking_sign_set">
    <g id="No_parking_sign">
      <g>
        <rect id="White_background" class="cls-2" width="132.86" height="199.29" rx="15.94" ry="15.94"/>
        <path id="outline" class="cls-1" d="M116.92,195.3H15.94c-6.59,0-11.96-5.36-11.96-11.96V15.94c0-6.59,5.36-11.96,11.96-11.96h100.97c6.59,0,11.96,5.36,11.96,11.96v167.4c0,6.59-5.36,11.96-11.96,11.96ZM15.94,7.97c-4.4,0-7.97,3.58-7.97,7.97v167.4c0,4.4,3.58,7.97,7.97,7.97h100.97c4.4,0,7.97-3.58,7.97-7.97V15.94c0-4.4-3.58-7.97-7.97-7.97H15.94Z"/>
      </g>
      <g id="No_parking_sign-2" data-name="No_parking_sign">
        <path d="M50.17,88.36v-54.31h17.6c6.67,0,11.01.27,13.04.82,3.11.82,5.72,2.59,7.82,5.32,2.1,2.73,3.15,6.25,3.15,10.58,0,3.33-.61,6.14-1.82,8.41-1.21,2.27-2.75,4.06-4.61,5.35-1.86,1.3-3.76,2.15-5.69,2.57-2.62.52-6.41.78-11.37.78h-7.15v20.49h-10.97ZM61.13,43.24v15.41h6c4.32,0,7.21-.28,8.67-.85,1.46-.57,2.6-1.46,3.43-2.67.83-1.21,1.24-2.62,1.24-4.22,0-1.98-.58-3.61-1.74-4.89-1.16-1.28-2.63-2.09-4.41-2.41-1.31-.25-3.94-.37-7.89-.37h-5.3Z"/>
        <path class="cls-1" d="M35.41,29.86c-17.1,17.1-17.1,44.93,0,62.03,8.55,8.55,19.78,12.83,31.02,12.83s22.47-4.28,31.02-12.83c17.1-17.1,17.1-44.93,0-62.03-17.1-17.1-44.93-17.1-62.03,0ZM40.22,87.09c-13.64-13.64-14.4-35.36-2.29-49.9l52.2,52.2c-14.55,12.11-36.26,11.35-49.9-2.29ZM94.93,84.58l-52.2-52.2c6.84-5.7,15.27-8.55,23.69-8.55,9.49,0,18.98,3.61,26.21,10.84,13.64,13.64,14.4,35.36,2.29,49.9Z"/>
      </g>
      <g>
        <g id="PARKING">
          <path class="cls-1" d="M28.7,161.12c0,2.29-.7,4.18-2.09,5.66-1.39,1.49-3.09,2.21-5.1,2.18h-2.32v14.53h-3.9v-31.09h6.08c2.07,0,3.81.75,5.22,2.25,1.41,1.5,2.11,3.66,2.11,6.47ZM24.66,160.94c0-1.55-.32-2.68-.95-3.41-.63-.73-1.48-1.09-2.53-1.09h-2v8.4h2.32c.99-.09,1.76-.49,2.32-1.21.56-.71.84-1.61.84-2.69Z"/>
          <path class="cls-1" d="M46.61,183.49h-4.13l-1.76-8.31h-5.1l-1.76,8.31h-4.04l6.45-31.09h3.9l6.45,31.09ZM39.93,170.54l-1.72-10.07-1.67,10.07h3.39Z"/>
          <path class="cls-1" d="M61.19,161.12c-.03,3.78-1.24,6.3-3.62,7.56l3.53,14.8h-3.99l-3.25-14.53h-2.18v14.53h-3.9v-31.09h6.08c2.07,0,3.82.76,5.24,2.27,1.42,1.52,2.12,3.67,2.09,6.45ZM57.15,161.03c0-1.58-.32-2.74-.95-3.48-.63-.74-1.48-1.11-2.53-1.11h-2v8.54h2.32c.99-.09,1.76-.49,2.32-1.21.56-.71.84-1.62.84-2.74Z"/>
          <path class="cls-1" d="M77.43,183.49h-4.22l-4.13-15.41-1.58,3.71v11.69h-3.9v-31.09h3.9v10.26l4.92-10.26h4.32l-4.83,10.53,5.52,20.56Z"/>
          <path class="cls-1" d="M84.53,183.49h-3.9v-31.09h3.9v31.09Z"/>
          <path class="cls-1" d="M101.56,183.49h-3.62l-5.89-18.42v18.42h-3.9v-31.09h3.9l5.57,16.94v-16.94h3.94v31.09Z"/>
          <path class="cls-1" d="M111.17,155.79c-.84-.03-1.52.46-2.07,1.49-.54,1.02-.9,4.61-1.09,10.77.19,5.75.57,9.14,1.16,10.16.59,1.02,1.33,1.5,2.23,1.44,1.36,0,2.13-1,2.32-3.02v-4.13h-2.6v-4.13h6.45v8.26c0,2.38-.63,4.22-1.88,5.5-1.25,1.28-2.71,1.93-4.39,1.93-2.6,0-4.42-1.2-5.48-3.6-1.05-2.4-1.61-6.55-1.67-12.46.06-6.34.68-10.61,1.86-12.81,1.18-2.2,2.94-3.29,5.29-3.29,1.55,0,2.98.61,4.29,1.83,1.31,1.22,1.97,2.95,1.97,5.17h-3.85c-.06-2.04-.91-3.08-2.55-3.11Z"/>
        </g>
        <g id="NO">
          <path class="cls-1" d="M62.95,143.6h-4.32l-8.68-19.77v19.77h-4.46v-31.09h4.46l8.49,19.49v-19.49h4.5v31.09Z"/>
          <path class="cls-1" d="M78.12,144.15c-3.19,0-5.52-1.34-7.01-4.01-1.49-2.68-2.23-6.71-2.23-12.09s.74-9.33,2.23-12.02c1.49-2.69,3.82-4.04,7.01-4.04s5.52,1.35,7.01,4.04c1.49,2.69,2.23,6.7,2.23,12.02s-.74,9.41-2.23,12.09c-1.49,2.68-3.82,4.01-7.01,4.01ZM78.12,139.79c1.7.03,2.92-.91,3.67-2.83.74-1.92,1.11-4.92,1.11-9s-.37-6.96-1.11-8.82c-.74-1.86-1.97-2.78-3.67-2.78s-2.92.93-3.67,2.78c-.74,1.86-1.11,4.8-1.11,8.82s.37,7.09,1.11,9c.74,1.92,1.96,2.86,3.67,2.83Z"/>
        </g>
      </g>
    </g>
  </g>
</svg>