<?xml version="1.0" encoding="UTF-8"?>
<svg id="Layer_2" xmlns="http://www.w3.org/2000/svg" viewBox="0 0 132.86 199.29">
  <defs>
    <style>
      .cls-1 {
        fill: #d10000;
      }

      .cls-2 {
        fill: #fff;
      }
    </style>
  </defs>
  <g id="No_parking_sign_set">
    <g id="No_parking_sign_with_right_arrow">
      <g>
        <rect id="White_background" class="cls-2" y="0" width="132.86" height="199.29" rx="15.94" ry="15.94"/>
        <path id="outline" class="cls-1" d="M116.92,195.3H15.94c-6.59,0-11.96-5.36-11.96-11.96V15.94c0-6.59,5.36-11.96,11.96-11.96h100.97c6.59,0,11.96,5.36,11.96,11.96v167.4c0,6.59-5.36,11.96-11.96,11.96ZM15.94,7.97c-4.4,0-7.97,3.58-7.97,7.97v167.4c0,4.4,3.58,7.97,7.97,7.97h100.97c4.4,0,7.97-3.58,7.97-7.97V15.94c0-4.4-3.58-7.97-7.97-7.97H15.94Z"/>
      </g>
      <g id="No_parking_sign">
        <path d="M50.17,88.36v-54.31h17.6c6.67,0,11.01.27,13.04.82,3.11.82,5.72,2.59,7.82,5.32,2.1,2.73,3.15,6.25,3.15,10.58,0,3.33-.61,6.14-1.82,8.41-1.21,2.27-2.75,4.06-4.61,5.35-1.86,1.3-3.76,2.15-5.69,2.57-2.62.52-6.41.78-11.37.78h-7.15v20.49h-10.97ZM61.13,43.24v15.41h6c4.32,0,7.21-.28,8.67-.85,1.46-.57,2.6-1.46,3.43-2.67.83-1.21,1.24-2.62,1.24-4.22,0-1.98-.58-3.61-1.74-4.89-1.16-1.28-2.63-2.09-4.41-2.41-1.31-.25-3.94-.37-7.89-.37h-5.3Z"/>
        <path class="cls-1" d="M35.41,29.86c-17.1,17.1-17.1,44.93,0,62.03,8.55,8.55,19.78,12.83,31.02,12.83s22.47-4.28,31.02-12.83c17.1-17.1,17.1-44.93,0-62.03-17.1-17.1-44.93-17.1-62.03,0ZM40.22,87.09c-13.64-13.64-14.4-35.36-2.29-49.9l52.2,52.2c-14.55,12.11-36.26,11.35-49.9-2.29ZM94.93,84.58l-52.2-52.2c6.84-5.7,15.27-8.55,23.69-8.55,9.49,0,18.98,3.61,26.21,10.84,13.64,13.64,14.4,35.36,2.29,49.9Z"/>
      </g>
      <g id="No_parking_text">
        <g id="NO">
          <path class="cls-1" d="M64.23,130.23h-2.73l-5.48-12.49v12.49h-2.82v-19.65h2.82l5.37,12.32v-12.32h2.84v19.65Z"/>
          <path class="cls-1" d="M73.82,130.58c-2.01,0-3.49-.85-4.43-2.54-.94-1.69-1.41-4.24-1.41-7.64s.47-5.89,1.41-7.6c.94-1.7,2.41-2.55,4.43-2.55s3.49.85,4.43,2.55c.94,1.7,1.41,4.23,1.41,7.6s-.47,5.95-1.41,7.64c-.94,1.69-2.41,2.54-4.43,2.54ZM73.82,127.82c1.07.02,1.85-.58,2.32-1.79.47-1.21.7-3.11.7-5.69s-.23-4.4-.7-5.57c-.47-1.17-1.24-1.76-2.32-1.76s-1.85.59-2.32,1.76c-.47,1.17-.7,3.03-.7,5.57s.23,4.48.7,5.69c.47,1.21,1.24,1.81,2.32,1.79Z"/>
        </g>
        <g id="PARKING">
          <path class="cls-1" d="M23.04,146.57h-2.7v9.24h-2.82v-19.65h5.86c1.54,0,2.79.48,3.74,1.44.95.96,1.42,2.23,1.42,3.81-.02,1.41-.48,2.62-1.39,3.64-.91,1.02-2.28,1.52-4.12,1.52ZM25.8,141.32c0-.74-.23-1.33-.7-1.76-.47-.43-1.08-.65-1.85-.65h-2.9v4.84h2.9c.7,0,1.3-.23,1.8-.7.5-.47.75-1.05.75-1.73Z"/>
          <path class="cls-1" d="M45.01,155.81h-2.84l-1.38-5.37h-4.19l-1.32,5.37h-2.82l4.9-19.65h2.76l4.9,19.65ZM40.11,147.69l-1.44-5.66-1.38,5.66h2.82Z"/>
          <path class="cls-1" d="M59.93,155.81h-2.9l-2.61-9.24h-2.7v9.24h-2.82v-19.65h5.86c1.54,0,2.79.48,3.74,1.44.95.96,1.42,2.23,1.42,3.81,0,1.04-.26,2.01-.78,2.92-.52.91-1.21,1.52-2.07,1.83l2.84,9.65ZM57.18,141.32c0-.74-.23-1.33-.7-1.76-.47-.43-1.08-.65-1.85-.65h-2.9v4.84h2.9c.7,0,1.3-.23,1.8-.7.5-.47.75-1.05.75-1.73Z"/>
          <path class="cls-1" d="M75.48,155.81h-2.96l-3.46-9.59-1.79,3.02v6.57h-2.82v-19.65h2.82v7.86l4.6-7.86h3.11l-4.05,6.89,4.55,12.76Z"/>
          <path class="cls-1" d="M83.48,155.81h-2.76v-19.65h2.76v19.65Z"/>
          <path class="cls-1" d="M99.93,155.81h-2.73l-5.48-12.49v12.49h-2.82v-19.65h2.82l5.37,12.32v-12.32h2.84v19.65Z"/>
          <path class="cls-1" d="M115.33,148.86c0,2.27-.42,4.05-1.25,5.35-.83,1.3-2.05,1.95-3.65,1.95-2.01,0-3.53-.78-4.55-2.33-1.02-1.55-1.52-4.16-1.52-7.82.04-3.79.62-6.44,1.74-7.93,1.12-1.5,2.5-2.24,4.12-2.24,1.41,0,2.59.46,3.55,1.39.96.93,1.48,2.12,1.55,3.56h-2.84c-.02-.66-.24-1.2-.67-1.6-.43-.4-.99-.6-1.67-.6-.78-.02-1.45.35-1.99,1.1-.55.75-.86,2.86-.94,6.32.02,3.28.33,5.35.94,6.2.61.85,1.33,1.25,2.17,1.19.74.04,1.3-.3,1.69-1.01.38-.71.54-1.82.48-3.33h-2.2v-2.76h5.04v2.55Z"/>
        </g>
      </g>
      <path id="Arrow_right" class="cls-1" d="M104.12,171.67l-15.7-9.79c-.88-.54-1.99.22-1.8,1.23l.91,4.92H28.55v7.95h58.98l-.91,4.92c-.19,1.02.92,1.78,1.8,1.23l15.7-9.79c.25-.16.25-.52,0-.68Z"/>
    </g>
  </g>
</svg>